<?xml version="1.0" encoding="UTF-8"?>
<svg version="1.1" viewBox="0 0 76 76" xmlns="http://www.w3.org/2000/svg">
  <title>Sashité</title>

  <g fill="#fff" stroke="null">
    <ellipse cx="38" cy="38" rx="30" ry="17" fill="#000" fill-opacity="null" stroke-opacity="null" stroke-width="null"/>
    <path d="m1.6785 37.807c3.7423-15.385 18.676-20.783 33.535-20.712-7.7623 2.766-17.802 7.7597-22.565 16.323 16.087-2.0414 34.666-0.6397 48.226-11.145 7.3872 5.178 18.614 14.339 10.789 24.247-10.206 12.596-28.48 13.343-43.254 11.8-11.129-1.4437-26.341-6.7214-26.73-20.513h-1e-5z"/>
    <path d="m48.036 36.83c6.0265-6.622 13.851-8.6136 19.78-0.39828-0.29156 9.3603-11.081 11.501-18.031 13.293-14.58 3.2861-29.549-0.64711-41.602-9.4099 13.171-1.8921 26.439-3.9833 39.853-3.4852v-2e-5z" fill="#000"/>
  </g>
</svg>
